 http://img59.imageshack.us/img59/9254/ab73b7.jpg

Country.......: USA
Genre.........: Action, Drama, Crime, Thriller
Date release..: 15.04.2011 [World]
Director......: Justin Lin
Writers.......: Chris Morgan, Gary Scott Thompson
Duration......: 130 min.
More..........: http://www.imdb.com/title/tt1596343
Trailer.......: http://www.imdb.com/video/imdb/vi1723702553
Trailer.......:

Pilot :
Dominic and his crew find themselves on the wrong side of the law once again as they try to switch lanes between a ruthless drug lord and a relentless federal agent.

Cats :
Vin Diesel   	 ...  	Dominic Toretto
Paul Walker 	... 	Brian OConner
Jordana Brewster 	... 	Mia Toretto
Tyrese Gibson 	... 	Roman Pearce
Ludacris 	... 	Tej Parker (as Chris Ludacris Bridges)
Elsa Pataky 	... 	Elena Neves
Gal Gadot 	... 	Gisele Harabo
Tego Calderon 	... 	Tego Leo
Don Omar 	... 	Rico Santos
Matt Schulze 	... 	Vince
Dwayne Johnson 	... 	Luke Hobbs
Sung Kang 	... 	Han Lue
Joaquim de Almeida 	... 	Hernan Reyes
Michael Irby 	... 	Zizi
Fernando Chien 	... 	Wilkes 

Data Technical :
!!! SAMPLE !!!
Audio.....: English
Subtitles.: Polish .txt
Format                           : AVI
Format/Info                      : Audio Video Interleave
File size                        : 1.49 GiB
Duration                         : 2h 10mn
Overall bit rate                 : 1 640 Kbps
Video
ID                               : 0
Format                           : MPEG-4 Visual
Format settings, BVOP            : Yes
Format settings, QPel            : No
Format settings, GMC             : No warppoints
Format settings, Matrix          : Default (H.263)
Codec ID                         : DX50
Codec ID/Hint                    : DivX 5
Duration                         : 2h 10mn
Bit rate                         : 1 500 Kbps
Width                            : 640 pixels
Height                           : 480 pixels
Display aspect ratio             : 4:3
Frame rate                       : 29.970 fps
Color space                      : YUV
Chroma subsampling               : 4:2:0
Bit depth                        : 8 bits
Scan type                        : Progressive
Bits/(Pixel*Frame)               : 0.163
Stream size                      : 1.36 GiB (91%)
Writing library                  : DivX 2151n
Audio
ID                               : 1
Format                           : MPEG Audio
Format version                   : Version 1
Format profile                   : Layer 3
Codec ID                         : 55
Codec ID/Hint                    : MP3
Duration                         : 2h 10mn
Bit rate mode                    : Constant
Bit rate                         : 128 Kbps
Channel(s)                       : 2 channels
Sampling rate                    : 48.0 KHz
Stream size                      : 119 MiB (8%)
Alignment                        : Aligned on interleaves
Interleave, duration             : 33 ms (1.00 video frame)

Screen : 
http://img59.imageshack.us/img59/7633/fastfive2011s1.jpg 
http://img696.imageshack.us/img696/8995/fastfive2011s2.jpg 
http://img192.imageshack.us/img192/8717/fastfive2011s3.jpg 
http://img718.imageshack.us/img718/1455/fastfive2011s4.jpg 
http://img198.imageshack.us/img198/745/fastfive2011s5.jpg